<?xml version="1.0" encoding="UTF-8"?><svg xmlns="http://www.w3.org/2000/svg" viewBox="0 0 212.72 67"><defs><style>.d{fill-rule:evenodd;}</style></defs><g id="a"/><g id="b"><g id="c"><path class="d" d="M151.78,19.99l2.77,9.56-6.54,.94,3.77-10.5Zm-11.16-6.21l-5.63,.81-6.81,13.29-4.72-11.67-5.71,.82-1.04,26.39,5.56-.8,.58-14.84,4.52,7.75,1.96-.26,5.3-9.34-.59,15.04,4.74-.68,6.06-.86,1.52-4.31,9.42-1.35,1.12,3.93,5.84-.84-8.57-25.01-4.38,.63-10.09,26.33-.05,.21,.99-25.23Zm-31.38,17.61c-.04,1.04-.09,2.08-.2,3.12-.07,.66-.15,1.32-.28,1.97-.09,.44-.2,.91-.41,1.31-.15,.29-.31,.58-.51,.84-.34,.48-.8,.86-1.28,1.18-.57,.38-1.22,.6-1.9,.7-.65,.09-1.32,.07-1.93-.17-.5-.2-.97-.48-1.31-.9-.19-.23-.34-.49-.47-.75-.19-.38-.27-.84-.33-1.26-.08-.63-.11-1.28-.13-1.92-.03-1.03,0-2.07,.04-3.1,.04-1.05,.09-2.09,.2-3.14,.07-.66,.15-1.33,.28-1.99,.09-.44,.21-.9,.41-1.31,.15-.29,.31-.58,.51-.84,.34-.48,.8-.86,1.29-1.17,.57-.36,1.22-.58,1.89-.67,.64-.09,1.31-.08,1.92,.15,.51,.19,.98,.47,1.32,.89,.19,.23,.34,.49,.47,.75,.19,.38,.27,.84,.33,1.26,.08,.64,.11,1.29,.12,1.93,.03,1.04,0,2.08-.04,3.12Zm-12.94-6.61h.1l-.38,.97c-.23,.59-.4,1.19-.54,1.8-.2,.93-.32,1.88-.37,2.83-.05,1.01-.1,2.03-.14,3.04-.04,1.01-.07,2.02-.1,3.04-.02,.92,.02,1.84,.15,2.75,.12,.82,.34,1.62,.68,2.37,.33,.74,.82,1.37,1.43,1.9,.88,.78,1.89,1.36,3.02,1.7,1.3,.39,2.77,.34,4.1,.15,1.46-.21,2.92-.62,4.21-1.35,1.24-.7,2.33-1.62,3.28-2.67,.66-.73,1.24-1.54,1.66-2.44,.4-.85,.7-1.73,.9-2.65,.2-.93,.32-1.88,.37-2.83,.05-1.01,.1-2.03,.14-3.04,.04-1.01,.07-2.02,.1-3.04,.02-.92-.02-1.84-.15-2.75-.12-.82-.34-1.62-.68-2.37-.33-.74-.83-1.37-1.43-1.9-.88-.78-1.89-1.36-3.02-1.7-1.3-.39-2.77-.34-4.1-.15-1.46,.21-2.92,.62-4.21,1.35-1.23,.7-2.33,1.62-3.28,2.67-.3,.33-.59,.68-.85,1.05l-.89,1.26Zm-.11-4.76l-36.92,5.29-.85,21.59-12.6,1.8,.85-21.59-5.56,.8-1.04,26.39,35.72-5.12,.19-4.8-12.01,1.72,.24-6.11,10.26-1.47,.19-4.8-10.26,1.47,.23-5.88,19.01-2.72-.85,21.59,5.56-.8,.85-21.59,6.8-.97,.19-4.8ZM30.08,55.69l5.56-.8,1.04-26.39-5.56,.8-1.04,26.39Zm-8.68-6.6c-.03,.75-.3,1.45-.71,2.07-.55,.82-1.45,1.19-2.4,1.32l-5.32,.76,.24-6.11,5.1-.73c.89-.13,1.9-.06,2.49,.72,.43,.57,.63,1.25,.6,1.97Zm.03-10.7c-.03,.71-.29,1.36-.7,1.94-.55,.78-1.46,1.12-2.37,1.25l-4.97,.71,.23-5.76,4.75-.68c.87-.12,1.89-.08,2.47,.68,.42,.54,.62,1.18,.59,1.86Zm-13.18-5.9l-1.04,26.39,11.31-1.62c1.14-.16,2.24-.48,3.29-.96,.97-.46,1.85-1.07,2.6-1.83,.75-.77,1.35-1.66,1.78-2.64,.47-1.06,.7-2.2,.74-3.36,.03-.72,0-1.5-.24-2.19-.17-.5-.4-.99-.73-1.4-.26-.32-.57-.62-.93-.83-.31-.19-.62-.37-.94-.53l-.82-.41,.7-.6c.29-.25,.57-.51,.85-.77,.37-.34,.68-.74,.96-1.15,.34-.5,.61-1.04,.83-1.59,.25-.62,.36-1.29,.39-1.96,.04-.99-.06-2.01-.4-2.95-.29-.79-.74-1.48-1.4-2.01-.71-.58-1.56-.92-2.45-1.11-1.15-.25-2.39-.2-3.55-.03l-10.96,1.57ZM179.79,12.92l.19-4.8-19.16,2.74-.19,4.8,6.8-.97-.85,21.59,5.56-.8,.85-21.59,6.8-.97Zm23.54,12l.62-13.87,3.41-.48-.49,10.83,5.83-.83-.14,3.04-9.25,1.31Zm-.37-9.3c-.03,.57-.15,1.14-.39,1.7-.23,.56-.56,1.08-.97,1.55-.41,.47-.92,.88-1.53,1.21-.6,.34-1.29,.56-2.06,.67l-2.09,.29-.22,4.95-3.41,.48,.62-13.87,5.5-.78c.77-.11,1.44-.08,2.02,.09,.58,.17,1.06,.43,1.44,.79,.38,.36,.66,.79,.84,1.3,.18,.51,.26,1.04,.24,1.6Zm-3.41,.48c.02-.36-.1-.67-.35-.92-.25-.25-.6-.34-1.07-.27l-1.93,.27-.13,2.8,1.93-.27c.47-.07,.84-.26,1.11-.58,.27-.32,.42-.67,.43-1.03Zm-16.38,24.95c1.53-.22,2.77-1.6,2.82-3.14l.44-12.62c-2.65-.03-4.78-2.18-4.78-4.83s2.16-4.83,4.83-4.83c.09,0,.19,0,.28,0l.44-12.86c.06-1.71-1.34-2.99-3.05-2.74C125.1,8.53,58.82,18.06,4.04,25.95c-1.53,.22-2.77,1.6-2.82,3.14L0,64.23c-.06,1.71,1.34,2.99,3.05,2.74l130.51-18.78-.55,16.09,11.85-17.71,38.29-5.51Z"/></g></g></svg>