<?xml version="1.0" encoding="utf-8"?>
<!-- Generator: Adobe Illustrator 26.2.1, SVG Export Plug-In . SVG Version: 6.00 Build 0)  -->
<!DOCTYPE svg PUBLIC "-//W3C//DTD SVG 1.1//EN" "http://www.w3.org/Graphics/SVG/1.1/DTD/svg11.dtd" [
	<!ENTITY ns_extend "http://ns.adobe.com/Extensibility/1.0/">
	<!ENTITY ns_ai "http://ns.adobe.com/AdobeIllustrator/10.0/">
	<!ENTITY ns_graphs "http://ns.adobe.com/Graphs/1.0/">
	<!ENTITY ns_vars "http://ns.adobe.com/Variables/1.0/">
	<!ENTITY ns_imrep "http://ns.adobe.com/ImageReplacement/1.0/">
	<!ENTITY ns_sfw "http://ns.adobe.com/SaveForWeb/1.0/">
	<!ENTITY ns_custom "http://ns.adobe.com/GenericCustomNamespace/1.0/">
	<!ENTITY ns_adobe_xpath "http://ns.adobe.com/XPath/1.0/">
]>
<svg version="1.1" id="Warstwa_1" xmlns:x="&ns_extend;" xmlns:i="&ns_ai;" xmlns:graph="&ns_graphs;"
	 xmlns="http://www.w3.org/2000/svg" xmlns:xlink="http://www.w3.org/1999/xlink" x="0px" y="0px" viewBox="0 0 390.01 177.04"
	 style="enable-background:new 0 0 390.01 177.04;" xml:space="preserve">
<style type="text/css">
	.st0{fill-rule:evenodd;clip-rule:evenodd;fill:#F07D37;}
</style>
<metadata>
	<sfw  xmlns="&ns_sfw;">
		<slices></slices>
		<sliceSourceBounds  bottomLeftOrigin="true" height="177.04" width="390" x="0.01" y="0.01"></sliceSourceBounds>
	</sfw>
</metadata>
<g id="a">
</g>
<g id="b">
	<g id="c">
		<g>
			<path class="st0" d="M55.15,176.53c0.05-0.66,0.08-1.33,0.08-2.03c0-18.4-20.17-33.37-44.97-33.37c-3.27,0-6.55,0.27-9.75,0.79
				V30.09c3.16,0.52,6.44,0.79,9.76,0.79c23.17,0,42.73-13.29,44.8-30.35l279.9-0.04c2.06,17.06,21.62,30.35,44.79,30.35
				c3.33,0,6.61-0.26,9.76-0.79v111.82c-3.17-0.52-6.45-0.79-9.77-0.79c-24.8,0.01-44.98,14.98-44.98,33.38
				c0,0.69,0.03,1.37,0.08,2.02L55.15,176.53z"/>
			<path d="M334.52,0.99c1.13,8.19,6.2,15.75,14.36,21.37c8.42,5.79,19.38,8.98,30.87,8.98c3.15,0,6.26-0.24,9.26-0.7v110.65
				c-3.02-0.47-6.13-0.7-9.27-0.7c-25.08,0.01-45.48,15.21-45.48,33.88c0,0.52,0.01,1.03,0.04,1.52l-278.62,0.04
				c0.03-0.5,0.04-1,0.04-1.53c0-18.68-20.4-33.87-45.47-33.87c-3.1,0-6.21,0.24-9.25,0.7V30.68c3.01,0.47,6.12,0.7,9.26,0.7
				c11.49,0,22.45-3.19,30.87-8.98C49.3,16.78,54.37,9.22,55.51,1.03L334.52,0.99 M335.41-0.01L54.62,0.03
				c-1.75,16.98-20.93,30.35-44.35,30.35c-3.53,0-6.97-0.3-10.26-0.88v113.01c3.28-0.57,6.71-0.88,10.25-0.88
				c24.56,0,44.47,14.71,44.47,32.87c0,0.85-0.04,1.69-0.13,2.53l280.79-0.04c-0.09-0.83-0.13-1.68-0.13-2.52
				c0-18.15,19.92-32.87,44.48-32.88c3.53,0,6.97,0.3,10.27,0.88V29.46c-3.28,0.58-6.72,0.88-10.26,0.88
				C356.33,30.34,337.15,16.97,335.41-0.01L335.41-0.01z"/>
		</g>
	</g>
</g>
</svg>
