<?xml version="1.0" encoding="UTF-8"?><svg xmlns="http://www.w3.org/2000/svg" viewBox="0 0 177.68 62.32"><defs><style>.d{fill:#1d1d1b;}</style></defs><g id="a"/><g id="b"><g id="c"><g><path class="d" d="M108.81,27.64c-1.79,0-2.61,.89-2.61,2.47v4.16c0,1.58,.82,2.47,2.61,2.47s2.61-.89,2.61-2.47v-4.16c0-1.58-.82-2.47-2.61-2.47Z"/><path class="d" d="M92.77,27.78c-1.06,0-2.23,.45-3.16,.93v7.83c.72,.07,1.34,.07,2.03,.07,2.47,0,2.92-1.13,2.92-2.71v-4.33c0-1.1-.48-1.79-1.79-1.79Z"/><path class="d" d="M75.32,27.36c-1.72,0-2.27,.96-2.27,2.13v.72h4.33v-.72c0-1.17-.34-2.13-2.06-2.13Z"/><path class="d" d="M125.68,27.64c-1.79,0-2.61,.89-2.61,2.47v4.16c0,1.58,.82,2.47,2.61,2.47s2.61-.89,2.61-2.47v-4.16c0-1.58-.82-2.47-2.61-2.47Z"/><path class="d" d="M44.27,35.75c0,.93,.38,1.31,1.34,1.31,1.03,0,1.75-.24,2.51-.58v-1.92h-2.37c-1.06,0-1.48,.27-1.48,1.2Z"/><path class="d" d="M146.52,0H31.16C13.95,0,0,13.95,0,31.16H0c0,17.21,13.95,31.16,31.16,31.16h115.36c17.21,0,31.16-13.95,31.16-31.16h0c0-17.21-13.95-31.16-31.16-31.16ZM38.61,24.17l-.34,4.05h-3.61v12.33h-4.95v-12.33h-2.54v-4.05h2.54v-2.51c0-3.43,1.61-5.36,5.67-5.36,1.41,0,2.44,.21,3.78,.48l-.62,3.88c-.69-.14-1.61-.24-2.2-.24-1.58,0-1.68,.69-1.68,1.79v1.96h3.95Zm14.46,16.38h-4.05l-.34-1.06c-1.92,1.06-3.64,1.41-4.77,1.41-3.09,0-4.36-2.23-4.36-5.08,0-3.37,1.55-4.71,4.98-4.71h3.61v-1.27c0-1.72-.31-2.3-2.95-2.3-1.48,0-2.95,.17-4.53,.48l-.65-3.71c1.58-.48,4.09-.82,6.01-.82,5.8,0,7.08,1.75,7.08,6.39v10.68Zm9.75-3.88c1.27,0,2.23-.14,3.43-.41l.62,4.12c-1.68,.38-2.89,.52-4.05,.52-5.43,0-7.66-2.03-7.66-6.8v-3.81c0-4.77,2.23-6.8,7.66-6.8,1.17,0,2.37,.14,4.05,.52l-.62,4.12c-1.03-.24-2.47-.41-3.43-.41-1.99,0-2.71,.79-2.71,2.51v3.95c0,1.72,.72,2.51,2.71,2.51Zm19.23-2.75h-9v.48c0,1.92,.76,2.44,3.02,2.44,1.55,0,3.61-.27,5.08-.72l.72,3.71c-1.51,.55-3.95,1.06-6.29,1.06-5.43,0-7.49-2.68-7.49-6.8v-3.92c0-3.61,1.61-6.7,7.18-6.7s6.77,3.3,6.77,6.94v3.5Zm17.45-.07c0,3.98-1.13,7.04-8.04,7.04-1.79,0-4.5-.17-6.8-.55V16.99l4.95-.69v8.11c1.34-.52,2.92-.93,4.74-.93,3.71,0,5.15,2.3,5.15,6.05v4.33Zm16.86,.27c0,3.43-1.61,6.77-7.56,6.77s-7.56-3.33-7.56-6.77v-3.88c0-3.44,1.61-6.77,7.56-6.77s7.56,3.33,7.56,6.77v3.88Zm16.86,0c0,3.43-1.61,6.77-7.56,6.77s-7.56-3.33-7.56-6.77v-3.88c0-3.44,1.61-6.77,7.56-6.77s7.56,3.33,7.56,6.77v3.88Zm7.56,6.42h-4.95V16.99l4.95-.69v24.25Zm5.12,0l-4.47-8.42,4.26-8.31h5.29l-4.4,8.31,4.6,8.42h-5.29Z"/></g></g></g></svg>