<?xml version="1.0" encoding="UTF-8"?><svg xmlns="http://www.w3.org/2000/svg" viewBox="0 0 62.52 142.55"><defs><style>.d,.e{fill:#eb6528;}.f,.g{fill:#fff;}.h{fill:#1e1f1c;}.i{fill:#47bbc5;}.g,.e,.j{stroke:#1e1f1c;stroke-miterlimit:10;}.j{fill:#eaae28;}</style></defs><g id="a"/><g id="b"><g id="c"><g><path class="g" d="M22.34,41.46c0,.25,.01,.49,.03,.73,.22,2.45,.87,8.71-2.03,14.28-1.06,2.04-1.98,4.23-2.06,6.68-.26,7.37,5.1,10.4,12.48,10.52,7.52,.12,14.38-2.55,14.38-10.04,0-3.29-1.65-5.98-3.15-8.63-3.02-5.35-2.12-11.14-2.07-13.35v-.18"/><path class="e" d="M57.98,25.3c-3.68-3.56-6.17-8.13-8.17-12.84C47.37,6.71,42.22,.5,31.33,.5,22.3,.5,14.63,6.28,11.8,14.34c-1.61,4.6-4.58,8.53-7.98,12.02-2.08,2.14-3.57,4.82-3.29,8.43,0,7.3,5.92,13.21,13.21,13.21,3.48,0,6.64-.42,9-2.04,1.79-1.23,3.73-2.26,5.88-2.59,1.53-.24,3.27-.32,5.11-.09,2.27,.28,4.31,1.37,6.17,2.71,2.66,1.92,6.2,2.44,10.17,1.96,5.32-.64,9.99-4.22,11.43-9.38,1.42-5.19-.22-10.08-3.52-13.27Z"/><g><path class="h" d="M48.03,22.79l.07,.17-.07,.17c-2.75,6.84-9.28,11.23-16.62,11.23s-13.85-4.39-16.6-11.23l-.07-.17,.07-.17c2.75-6.84,9.26-11.23,16.6-11.23s13.87,4.39,16.62,11.23Zm-.47,.17l.2-.45c-.17-.07-.32-.15-.5-.2-2.7-6.04-8.78-10.28-15.85-10.28s-13.05,4.17-15.8,10.16c-.4,.2-.6,.35-.62,.35l.27,.42,.05,.07c2.57,6.34,8.81,10.83,16.1,10.83s13.28-4.29,15.95-10.46l.2-.44Z"/><path class="h" d="M47.75,22.51l-.2,.45c-.1-.22-.17-.45-.3-.65,.18,.05,.33,.13,.5,.2Z"/><path class="h" d="M47.26,22.31c.12,.2,.2,.42,.3,.65-.22-.1-.45-.2-.65-.27-.1-.22-.2-.42-.3-.65,.2,.05,.42,.15,.65,.27Z"/><path class="h" d="M47.56,22.96l-.2,.45c-.15-.07-.3-.12-.45-.17,.05-.1,.07-.17,.12-.27h.53Z"/><path class="h" d="M47.56,22.96h-.52c-.05-.1-.07-.17-.12-.27,.19,.07,.41,.17,.64,.27Z"/><path class="h" d="M46.91,23.23c.15,.05,.3,.1,.45,.17-2.67,6.16-8.81,10.46-15.95,10.46s-13.53-4.49-16.1-10.83l.22,.32s.12-.07,.35-.2c2.67,6.21,8.73,10.23,15.52,10.23,6.8,0,12.81-3.96,15.51-10.15Z"/><path class="h" d="M47.26,22.31c-.22-.12-.45-.22-.65-.27-2.82-5.81-8.66-9.51-15.2-9.51s-12.25,3.62-15.12,9.31c-.27,.12-.5,.25-.67,.35,2.75-5.99,8.78-10.16,15.8-10.16,7.05,0,13.14,4.24,15.84,10.28Z"/><path class="h" d="M46.91,22.69c.05,.1,.07,.17,.12,.27h-.75c-2.94-1.27-5.74-2.1-8.36-2.6-.07-.22-.17-.42-.3-.6,2.9,.56,5.99,1.48,9.29,2.93Z"/><path class="h" d="M47.03,22.96c-.05,.1-.07,.17-.12,.27-.22-.12-.42-.2-.62-.27h.74Z"/><path class="f" d="M46.28,22.96c.2,.07,.4,.15,.62,.27-2.7,6.19-8.71,10.16-15.5,10.16s-12.85-4.02-15.52-10.23c.1-.07,.22-.12,.37-.2h7.71c-.02,.12-.02,.27-.02,.42,0,4.02,3.29,7.31,7.34,7.31s7.31-3.29,7.31-7.31c0-.15,0-.3-.02-.42h7.71Z"/><path class="h" d="M46.61,22.04c.1,.22,.2,.42,.3,.65-3.29-1.45-6.39-2.37-9.28-2.92-.05-.12-.12-.25-.2-.35l-.4,.25c-1.57-.27-3.07-.42-4.49-.5h-.02c-.4-.12-.82-.2-1.25-.2-.4,0-.77,.05-1.15,.17-1.65,0-3.14,.15-4.54,.35l-.35-.25c-.07,.12-.15,.22-.2,.35-4.59,.75-7.74,2.25-9.06,2.97,.1-.25,.22-.47,.32-.72,3.71-1.85,15.14-6.24,30.32,.2Z"/><path class="f" d="M46.28,22.96h-7.71c-.05-.92-.25-1.8-.65-2.6,2.62,.5,5.42,1.33,8.36,2.6Z"/><path class="d" d="M31.41,12.53c6.54,0,12.38,3.69,15.2,9.51-15.17-6.44-26.6-2.05-30.32-.2,2.86-5.69,8.65-9.31,15.12-9.31Z"/><path class="h" d="M38.57,22.96c.02,.12,.02,.27,.02,.42,0,4.02-3.29,7.31-7.31,7.31s-7.34-3.29-7.34-7.31c0-.15,0-.3,.02-.42h1c-.02,.12-.02,.27-.02,.42,0,3.49,2.85,6.34,6.34,6.34s6.34-2.85,6.34-6.34c0-.15,0-.3-.02-.42h.97Z"/><path class="h" d="M38.57,22.96h-.97c-.05-1-.35-1.97-.87-2.82,.4,.05,.8,.12,1.2,.22,.39,.8,.59,1.68,.64,2.6Z"/><path class="h" d="M37.62,19.77c.12,.17,.22,.37,.3,.6-.4-.1-.8-.17-1.2-.22-.05-.07-.07-.12-.12-.2l.42-.27c.2,0,.4,.06,.6,.09Z"/><path class="i" d="M37.6,22.96c.02,.12,.02,.27,.02,.42,0,3.49-2.85,6.34-6.34,6.34s-6.34-2.85-6.34-6.34c0-.15,0-.3,.02-.42h2.07c-.02,.07-.02,.17-.02,.25,0,2.35,1.9,4.27,4.24,4.27s4.24-1.92,4.24-4.27c0-.07,0-.17-.02-.25h2.13Z"/><path class="h" d="M37.62,19.77c-.2-.02-.4-.07-.6-.1l.4-.25c.08,.1,.15,.22,.2,.35Z"/><path class="i" d="M37.6,22.96h-2.12c-.05-1.32-.72-2.47-1.75-3.17,.95,.05,1.97,.17,2.99,.35,.53,.85,.83,1.82,.88,2.82Z"/><path class="h" d="M37.02,19.67l-.42,.27c.05,.07,.07,.12,.12,.2-1.02-.17-2.05-.3-2.99-.35-.35-.3-.75-.5-1.2-.62,1.42,.07,2.92,.22,4.49,.5Z"/><path class="h" d="M35.48,22.96c.02,.07,.02,.17,.02,.25,0,2.35-1.9,4.27-4.24,4.27s-4.24-1.92-4.24-4.27c0-.07,0-.17,.02-.25h8.44Z"/><path class="h" d="M35.48,22.96h-8.44c.07-1.37,.77-2.55,1.85-3.27,1.52-.1,3.12-.07,4.84,.1,1.02,.7,1.7,1.85,1.75,3.17Z"/><path class="h" d="M32.53,19.17c.45,.12,.85,.32,1.2,.62-1.72-.17-3.32-.2-4.84-.1,.37-.25,.77-.45,1.22-.55,.75-.05,1.57-.02,2.4,.02h.02Z"/><path class="h" d="M32.51,19.17c-.82-.05-1.65-.07-2.4-.02,.37-.12,.75-.17,1.15-.17,.42,0,.85,.06,1.25,.19Z"/><path class="h" d="M30.11,19.14c-.45,.1-.85,.3-1.22,.55-1.02,.05-2.02,.15-2.94,.3,.02-.07,.05-.12,.1-.17l-.47-.32c1.39-.21,2.88-.36,4.53-.36Z"/><path class="i" d="M25.94,19.99c.92-.15,1.92-.25,2.94-.3-1.07,.72-1.77,1.9-1.85,3.27h-2.07c.06-1.07,.41-2.1,.98-2.97Z"/><path class="h" d="M26.04,19.82c-.05,.05-.07,.1-.1,.17-.42,.05-.85,.1-1.27,.17,.1-.2,.22-.4,.35-.57,.17-.05,.37-.07,.55-.1l.47,.33Z"/><path class="h" d="M24.67,20.17c.42-.07,.85-.12,1.27-.17-.57,.87-.92,1.9-.97,2.97h-1c.05-.97,.3-1.9,.7-2.77v-.03Z"/><path class="h" d="M25.22,19.24l.35,.25c-.17,.02-.37,.05-.55,.1,.05-.12,.12-.22,.2-.35Z"/><path class="h" d="M25.02,19.59c-.12,.17-.25,.37-.35,.57v.02c-4.19,.72-7.14,2.1-8.41,2.77h-.47c.05-.12,.12-.27,.17-.4,1.32-.71,4.47-2.21,9.06-2.96Z"/><path class="f" d="M24.67,20.19c-.4,.87-.65,1.8-.7,2.77h-7.71c1.27-.67,4.22-2.05,8.41-2.77Z"/><path class="h" d="M16.29,21.84c-.1,.25-.22,.47-.32,.72-.47,.25-.7,.4-.7,.4,.1-.27,.22-.52,.35-.77,.17-.1,.39-.23,.67-.35Z"/><path class="h" d="M15.79,22.96h.47c-.15,.07-.27,.12-.37,.2-.05-.07-.08-.12-.1-.2Z"/><path class="h" d="M15.96,22.56c-.05,.12-.12,.27-.17,.4h-.52s.22-.15,.69-.4Z"/><path class="h" d="M15.79,22.96c.02,.07,.05,.12,.1,.2-.22,.12-.35,.2-.35,.2l-.22-.32-.05-.07h.52Z"/><path class="h" d="M15.61,22.19c-.12,.25-.25,.5-.35,.77l-.27-.42s.22-.15,.62-.35Z"/></g><circle class="g" cx="11.87" cy="36.03" r="6.35"/><circle class="g" cx="50.12" cy="36.03" r="6.35"/></g><path class="e" d="M31.64,78.45c1.32,.07,2.58,.54,3.66,1.3,3.11,2.21,9.61,8.06,10.09,18.57,.64,13.85-1.7,20.88-1.7,20.88l-3.2-11.93s-2.13,20.24-8.95,33.67l-.32,.55-.27-.55c-6.82-13.43-8.95-33.67-8.95-33.67l-3.2,11.93s-2.34-7.03-1.7-20.88c.48-10.49,6.96-16.34,10.07-18.56,1.28-.91,2.82-1.39,4.39-1.32,.03,0,.05,0,.08,0Z"/><path class="j" d="M31.47,81.16c.76,.04,1.49,.31,2.12,.75,1.8,1.28,5.55,4.66,5.83,10.74,.37,8.01-.99,12.07-.99,12.07l-1.85-6.9s-1.23,11.7-5.17,19.47l-.18,.32-.15-.32c-3.94-7.76-5.17-19.47-5.17-19.47l-1.85,6.9s-1.36-4.07-.99-12.07c.28-6.07,4.03-9.45,5.82-10.73,.74-.53,1.63-.8,2.54-.76h.04Z"/></g></g></svg>