<?xml version="1.0" encoding="UTF-8"?><svg xmlns="http://www.w3.org/2000/svg" viewBox="0 0 506.63 258.12"><defs><style>.d{fill:#fff;stroke:#1d1d1b;stroke-miterlimit:10;}</style></defs><g id="a"/><g id="b"><g id="c"><path class="d" d="M25.47,116.33c.09,1.6,.93,2.44,2.53,2.53l17.38,.78h.26c1.69,0,2.53-.89,2.53-2.66v-29.77c0-3.07,1.43-4.6,4.28-4.6h.06l21.27,.26c3.03,.04,4.54,1.49,4.54,4.34v.65l-7.33,100.07c-.13,1.69-.95,2.53-2.47,2.53h-17.71c-1.77,0-2.66-.89-2.66-2.66v-32.04c0-1.6-.8-2.46-2.4-2.59l-14.85-1.23h-.19c-1.82,0-2.72,.91-2.72,2.72v.06l.78,31.13v.19c0,2.94-1.53,4.41-4.6,4.41H7.31c-3.46,0-5.21-1.73-5.25-5.19L.5,88.18v-.13c0-2.55,1.32-3.83,3.96-3.83h15.44c2.55,0,3.89,1.28,4.02,3.83l1.56,28.28Z"/><path class="d" d="M83.74,69.08v-.13c0-3.5,1.75-5.25,5.25-5.25h24.45c3.46,0,5.19,1.64,5.19,4.93v.45l-4.28,91.64c-.17,3.42-1.95,5.12-5.32,5.12h-18.87c-3.46,0-5.21-1.75-5.25-5.25l-1.17-91.51Z"/><path class="d" d="M150.82,129.98c-1.77,0-2.66,.89-2.66,2.66v25.94c0,3.07-1.53,4.6-4.6,4.6h-14.59c-3.07,0-4.6-1.53-4.6-4.6V69.6c0-3.93,1.97-5.9,5.9-5.9h42.22c6.79,0,12.88,1.92,18.29,5.77l1.81,1.3c5.45,3.89,8.17,9.19,8.17,15.89v17.19c0,6.66-2.33,12.41-7,17.25l-1.69,1.75c-4.67,4.84-10.31,7.26-16.93,7.26h-.13l-24.19-.13Zm23.35-32.75c0-3.59-1.69-5.73-5.06-6.42l-15.95-3.18c-.35-.09-.65-.13-.91-.13-1.08,0-1.62,.69-1.62,2.08v.13l.32,18.61c.04,1.73,.65,2.59,1.82,2.59,.3,0,.67-.07,1.1-.2l15.18-4.22c3.42-.95,5.12-3.16,5.12-6.62v-2.66Z"/><path class="d" d="M182.85,202.97c-1.77,0-2.66,.89-2.66,2.66v25.94c0,3.07-1.53,4.6-4.6,4.6h-14.59c-3.07,0-4.6-1.53-4.6-4.6v-88.98c0-3.93,1.97-5.9,5.9-5.9h42.22c6.79,0,12.88,1.92,18.29,5.77l1.81,1.3c5.45,3.89,8.17,9.19,8.17,15.89v17.19c0,6.66-2.33,12.41-7,17.25l-1.69,1.75c-4.67,4.84-10.31,7.26-16.93,7.26h-.13l-24.19-.13Zm23.35-32.75c0-3.59-1.69-5.73-5.06-6.42l-15.95-3.18c-.35-.09-.65-.13-.91-.13-1.08,0-1.62,.69-1.62,2.08v.13l.32,18.61c.04,1.73,.65,2.59,1.82,2.59,.3,0,.67-.07,1.1-.2l15.18-4.22c3.42-.95,5.12-3.16,5.12-6.62v-2.66Z"/><path class="d" d="M206.34,35.15v-.13c0-3.5,1.75-5.25,5.25-5.25h24.45c3.46,0,5.19,1.64,5.19,4.93v.45l-4.28,91.64c-.17,3.42-1.95,5.12-5.32,5.12h-18.87c-3.46,0-5.21-1.75-5.25-5.25l-1.17-91.51Z"/><path class="d" d="M306.87,170.86l-.13,13.23c-.04,3.07-1.58,4.6-4.6,4.6h-49.42c-4.76,0-7.16-2.4-7.2-7.2l-.52-90.02c-.04-4.32,2.14-6.49,6.55-6.49l49.29-.19c3.93,0,5.9,1.95,5.9,5.84v.06l-.13,20.5c-.04,3.93-2.01,5.9-5.9,5.9h-29.44c-1.73,0-2.59,.89-2.59,2.66v8.5c0,1.6,.78,2.49,2.34,2.66l28.34,3.44c1.56,.17,2.33,1,2.33,2.47v.06l-.13,9.21c-.04,3.07-1.58,4.6-4.6,4.6l-24.65-.13c-3.07,0-4.6,1.53-4.6,4.6v8.3c0,1.77,.89,2.66,2.66,2.66l31.91,.13c3.07,0,4.6,1.51,4.6,4.54v.06Z"/><path class="d" d="M356.54,202.05c-.3,.48-.45,.97-.45,1.49,0,1.6,.8,2.49,2.4,2.66l25.36,2.79c3.72,.39,5.58,2.49,5.58,6.29v15.57c0,3.93-1.97,5.9-5.9,5.9h-67.19c-3.07,0-4.6-1.53-4.6-4.6v-21.86c0-.56,.24-1.12,.71-1.69l33.21-40.15c.43-.52,.65-1.12,.65-1.82,0-1.69-.89-2.53-2.66-2.53l-29.96,.13c-3.93,0-5.9-1.97-5.9-5.9v-19.72c0-3.89,1.92-5.88,5.77-5.97l73.29-1.95h.26c3.41,0,5.12,1.73,5.12,5.19v8.11c0,.48-.13,.93-.39,1.36l-35.28,56.68Z"/><path class="d" d="M477.29,202.19c.09,.26,.13,.52,.13,.78,0,1.69-.89,2.53-2.66,2.53h-21.08c-2.85,0-4.8-1.23-5.84-3.7l-10.44-25.16-23.09-3.57-5.38,12.97c-.91,2.16-2.38,3.24-4.41,3.24h-18.94c-1.73,0-2.59-.84-2.59-2.53,0-.34,.04-.69,.13-1.04l36.77-96.31c.91-2.42,2.75-3.76,5.51-4.02l14.59-1.43c.39-.04,.76-.06,1.1-.06,3.24,0,5.28,1.56,6.1,4.67l30.09,113.63Zm-42.94-47.02l-4.93-21.01c-.35-1.43-1.32-2.14-2.92-2.14-1.08,0-1.77,.54-2.08,1.62l-5.45,19.26c-.17,.56-.26,1.06-.26,1.49,0,1.3,.78,2.08,2.33,2.33l10.51,1.75c.13,.04,.26,.06,.39,.06,1.69,0,2.53-.84,2.53-2.53,0-.26-.04-.54-.13-.84Z"/><g><circle class="d" cx="209.53" cy="11.79" r="11.29"/><circle class="d" cx="238.04" cy="11.79" r="11.29"/></g><g><path class="d" d="M443.43,228.95l-2.43-.2c-.65,0-.97,.37-.97,1.11v7.06c0,.74,.41,1.14,1.22,1.2l1.89,.13c.65,0,.99-.37,1.02-1.12l.29-7.06c0-.68-.34-1.05-1.02-1.11Z"/><path class="d" d="M505.4,232.38c-12.89-13.18-32.58-21.64-54.72-21.64s-41.82,8.47-54.72,21.64c-.97,.99-.97,2.61,0,3.6,12.89,13.18,32.58,21.65,54.72,21.65s41.82-8.47,54.72-21.65c.97-.99,.97-2.61,0-3.6Zm-78.35,4.85l6.06,.09c.36,0,.55,.19,.55,.56v4.83c0,.35-.17,.52-.52,.52h-12.18c-.33,0-.5-.17-.51-.5l-.05-1.61c-.01-.22-.01-.44-.01-.65,0-4,1.2-6.77,3.61-8.33l2.14-1.39c.65-.42,.97-.96,.97-1.62v-.33c0-.6-.3-.91-.89-.92l-3.46-.06c-.67,0-1.01-.36-1.01-1.06v-3.39c0-.69,.34-1.03,1.03-1.03h5.93c3.15,0,4.83,1.18,5.05,3.53l.27,2.86c.02,.18,.03,.35,.03,.51,0,1.19-.39,2.22-1.19,3.1-.71,.8-1.67,1.39-2.87,1.76l-1.62,.51c-1.25,.39-1.87,1.09-1.87,2.09,0,.34,.18,.51,.55,.52Zm21.37,1.15c0,1.3-.39,2.49-1.17,3.57l-.17,.23c-.76,1.06-1.81,1.59-3.15,1.59h-3.65c-1.32,0-2.32-.56-3-1.7l-.34-.57c-.67-1.12-1.01-2.32-1.01-3.58v-.08l.11-10.16c-.02-.88,.17-1.56,.32-1.97,.08-.21,.99-2.59,3.25-3.21,.44-.12,.81-.14,1.06-.14,2.47-.22,4.44,.07,5.36,.57,.52,.28,.92,.64,.92,.64,.97,.85,1.45,1.93,1.45,3.25v11.55Zm8.07-1.15l6.06,.09c.36,0,.55,.19,.55,.56v4.83c0,.35-.17,.52-.52,.52h-12.18c-.33,0-.5-.17-.51-.5l-.05-1.61c-.01-.22-.01-.44-.01-.65,0-4,1.2-6.77,3.61-8.33l2.14-1.39c.65-.42,.97-.96,.97-1.62v-.33c0-.6-.3-.91-.89-.92l-3.46-.06c-.67,0-1.01-.36-1.01-1.06v-3.39c0-.69,.34-1.03,1.03-1.03h5.93c3.15,0,4.83,1.18,5.05,3.53l.27,2.86c.02,.18,.03,.35,.03,.51,0,1.19-.39,2.22-1.19,3.1-.71,.8-1.67,1.39-2.87,1.76l-1.62,.51c-1.25,.39-1.87,1.09-1.87,2.09,0,.34,.18,.51,.55,.52Zm22.34,3.04c0,1.33-.49,2.43-1.48,3.29-1.03,.9-2.19,1.35-3.49,1.35h-7.59c-.93,0-1.41-.46-1.45-1.38l-.11-2.55v-.1c0-.71,.37-1.08,1.11-1.11l6.11-.31c.77-.04,1.16-.43,1.16-1.17v-2.12c0-.73-.37-1.13-1.12-1.19l-3.65-.28c-.25-.02-.44-.21-.55-.57-.15-.52-.23-.85-.23-.98,0-.15,.07-.29,.2-.41l3.81-3.21c.14-.11,.2-.25,.2-.42,0-.33-.18-.5-.55-.5h-5.46c-.35,0-.52-.17-.52-.51v-4.4c0-.34,.17-.51,.52-.51h11.78c.35,0,.52,.17,.52,.51v3.54c0,.07-.03,.16-.09,.27l-2.05,3.79,1.17,.64c1.16,.63,1.75,1.6,1.75,2.91v5.42Z"/></g></g></g></svg>