<?xml version="1.0" encoding="UTF-8"?><svg xmlns="http://www.w3.org/2000/svg" viewBox="0 0 56.09 79.31"><defs><style>.d{fill:#feca1c;}.e{fill:#1e1e1c;}.f{fill:#1ab4e9;}.g{fill:#ee7648;}.g,.h{stroke:#1e1f1c;stroke-miterlimit:10;}.h{fill:#eb6528;}</style></defs><g id="a"/><g id="b"><g id="c"><g><g><g><path class="g" d="M9.27,.57V69.78s.03,.07,.07,.07H55.59V.57s-.03-.07-.07-.07H9.33s-.07,.03-.07,.07Z"/><path class="e" d="M8.79,70.26V.56l.31-.45L55.52,.02l.54,.07V70.33H9.33l-.55-.07ZM55.11,.98H9.75V69.37H55.11V.98Z"/></g><g><g><path class="e" d="M51.66,9.75h.96c0-3.38-2.75-6.13-6.14-6.13v.96c2.86,0,5.18,2.32,5.18,5.18Z"/><path class="e" d="M12.24,9.75h.96c0-2.85,2.32-5.18,5.18-5.18v-.96c-3.38,0-6.13,2.75-6.13,6.13Z"/></g><g><path class="e" d="M18.38,66.74v-.96c-2.85,0-5.18-2.32-5.18-5.18h-.96c0,3.38,2.75,6.14,6.13,6.14Z"/><path class="e" d="M46.48,66.74c3.38,0,6.14-2.75,6.14-6.14h-.96c0,2.86-2.32,5.18-5.18,5.18v.96Z"/></g></g><g><g><path class="f" d="M17.53,48.1c0,8.23,6.67,14.9,14.9,14.9s14.9-6.67,14.9-14.9-6.67-14.9-14.9-14.9-14.9,6.67-14.9,14.9Z"/><path class="e" d="M17.05,48.1c0-8.48,6.9-15.38,15.37-15.38s15.37,6.9,15.37,15.38c0,8.48-6.9,15.38-15.37,15.38s-15.37-6.9-15.37-15.38Zm.96,0c0,7.95,6.47,14.42,14.42,14.42s14.42-6.47,14.42-14.42c0-7.95-6.47-14.42-14.42-14.42s-14.42,6.47-14.42,14.42Z"/></g><g><path class="d" d="M26.61,48.1c0,3.22,2.61,5.82,5.82,5.82s5.82-2.61,5.82-5.82-2.61-5.82-5.82-5.82-5.82,2.61-5.82,5.82Z"/><path class="e" d="M26.13,48.1c0-3.47,2.83-6.3,6.3-6.3s6.3,2.83,6.3,6.3-2.83,6.3-6.3,6.3-6.3-2.83-6.3-6.3Zm.96,0c0,2.95,2.4,5.34,5.34,5.34s5.34-2.4,5.34-5.34-2.4-5.34-5.34-5.34-5.34,2.4-5.34,5.34Z"/></g><g><path class="f" d="M21.01,18.77c0,6.31,5.11,11.42,11.42,11.42s11.42-5.11,11.42-11.42c0-6.3-5.11-11.41-11.42-11.41s-11.42,5.11-11.42,11.41Z"/><path class="e" d="M20.53,18.77c0-6.56,5.34-11.89,11.9-11.89s11.9,5.33,11.9,11.89c0,6.56-5.34,11.89-11.9,11.89s-11.9-5.34-11.9-11.89Zm.96,0c0,6.03,4.91,10.94,10.94,10.94s10.94-4.91,10.94-10.94c0-6.03-4.91-10.93-10.94-10.93s-10.94,4.9-10.94,10.93Z"/></g><g><path class="d" d="M27.75,18.77c0,2.58,2.09,4.68,4.67,4.68s4.68-2.09,4.68-4.68-2.1-4.67-4.68-4.67-4.67,2.09-4.67,4.67Z"/><path class="e" d="M27.28,18.77c0-2.84,2.31-5.15,5.15-5.15s5.16,2.31,5.16,5.15-2.31,5.16-5.16,5.16-5.15-2.31-5.15-5.16Zm.96,0c0,2.31,1.88,4.2,4.19,4.2s4.2-1.88,4.2-4.2-1.88-4.19-4.2-4.19-4.19,1.88-4.19,4.19Z"/></g></g></g><g><path class="h" d="M9.27,69.85V.69c0-.08-.09-.13-.15-.08L.54,6.89s-.04,.05-.04,.08V78.58c0,.09,.11,.13,.17,.07l8.57-8.76s.04-.03,.07-.03H55.4c.08,0,.12,.09,.08,.15l-6.15,8.77s-.05,.04-.08,.04H.5"/><path class="e" d="M.5,79.14s-.08-.02-.12-.03l-.36-.21V6.97l.04-.32L8.83,.23c.18-.13,.41-.15,.6-.05l.32,.22V69.37H55.4c.22,0,.41,.12,.51,.31l.12,.36-6.31,9.01-.22,.24H.5v-.15Zm54.17-8.81H9.47l-7.83,8.01H49.06l5.61-8.01ZM8.79,1.45L.98,7.16V77.64l7.81-7.98V1.45ZM55.09,69.73h0Z"/></g></g></g></g></svg>