<?xml version="1.0" encoding="UTF-8"?><svg xmlns="http://www.w3.org/2000/svg" viewBox="0 0 223.24 35.71"><defs><style>.d{fill:#fff;}.e{fill:#1e1e1c;}</style></defs><g id="a"/><g id="b"><g id="c"><g><path class="d" d="M185.63,35.18h24.61s11.24,1.24,12.45-7.5c1.22-8.74-12.98-7.38-24.1-9.29-11.11-1.92-31.49-24.26-47.55-16.17-16.05,8.08-27.17,13.9-42.61,6.67-15.44-7.23-49.59-3.52-61.23,5.74C35.58,23.89,9.65,23,3.47,27.46c-6.17,4.46-4.32,7.72,20.38,7.72H185.63Z"/><path class="e" d="M210.24,35.66H23.85c-19.92,0-23.16-2.12-23.75-3.96-.43-1.32,.56-2.79,3.09-4.63,2.6-1.88,8.46-2.82,15.24-3.91,9.66-1.55,21.68-3.49,28.49-8.91,12.06-9.6,46.67-12.85,61.73-5.8,15.01,7.03,26.13,1.43,41.51-6.32l.67-.34c10.75-5.42,23.5,2.57,33.74,9,5.32,3.34,10.35,6.49,14.1,7.13,2.6,.45,5.4,.72,8.1,.98,6.62,.64,12.87,1.24,15.36,4.39,.94,1.19,1.29,2.69,1.04,4.46-1,7.2-8.49,7.96-11.59,7.96-.81,0-1.32-.05-1.34-.05ZM151.26,2.65l-.67,.34c-15.63,7.87-26.92,13.56-42.35,6.34-14.82-6.94-48.87-3.76-60.73,5.68-7,5.58-19.16,7.53-28.93,9.1-6.66,1.07-12.41,2-14.83,3.74-2.07,1.49-3.01,2.72-2.75,3.55,.49,1.51,4.84,3.3,22.84,3.3H210.29c.1,.01,10.79,1.1,11.93-7.08,.21-1.53-.06-2.75-.84-3.74-2.23-2.82-8.28-3.41-14.7-4.03-2.72-.26-5.53-.53-8.17-.99-3.93-.68-8.8-3.73-14.45-7.26-8.1-5.08-17.03-10.67-25.39-10.67-2.54,0-5.02,.52-7.42,1.72Z"/></g></g></g></svg>