<?xml version="1.0" encoding="UTF-8"?><svg xmlns="http://www.w3.org/2000/svg" viewBox="0 0 26.29 38.09"><defs><style>.d{fill:#fff;stroke:#1d1d1b;stroke-miterlimit:10;stroke-width:.5px;}</style></defs><g id="a"/><g id="b"><g id="c"><path class="d" d="M.27,11.04L7.5,29.31c-1.39-.17-2.91,.34-4.06,1.75-.38,.46-.63,1.03-.71,1.62-.63,4.74,4.97,7.1,7.93,3.23,.68-.89,.87-2.48,.46-3.51l-6.15-15.55c-.04-.11,0-.23,.09-.29l12.58-8.01c.13-.08,.29-.03,.35,.11l4.29,10.84c-1.39-.17-2.91,.34-4.06,1.74-.38,.46-.63,1.03-.71,1.63-.49,3.75,2.92,6.01,5.83,4.86,2.11-.83,3.18-3.16,2.5-5.29L17.13,.4c-.05-.14-.22-.19-.35-.11L.36,10.75c-.1,.06-.13,.18-.09,.29Z"/></g></g></svg>